<?xml version="1.0" encoding="UTF-8" standalone="no"?>
<svg
   xmlns:dc="http://purl.org/dc/elements/1.1/"
   xmlns:cc="http://creativecommons.org/ns#"
   xmlns:rdf="http://www.w3.org/1999/02/22-rdf-syntax-ns#"
   xmlns:svg="http://www.w3.org/2000/svg"
   xmlns="http://www.w3.org/2000/svg"
   viewBox="0 0 603.73334 382.45334"
   height="382.45334"
   width="603.73334"
   xml:space="preserve"
   id="svg2"
   version="1.1"><metadata
     id="metadata8"><rdf:RDF><cc:Work
         rdf:about=""><dc:format>image/svg+xml</dc:format><dc:type
           rdf:resource="http://purl.org/dc/dcmitype/StillImage" /></cc:Work></rdf:RDF></metadata><defs
     id="defs6" /><g
     transform="matrix(1.3333333,0,0,-1.3333333,0,382.45333)"
     id="g10"><g
       transform="scale(0.1)"
       id="g12"><path
         id="path14"
         style="fill:#0f284e;fill-opacity:1;fill-rule:evenodd;stroke:none"
         d="m 2272.58,1471.63 c -241.04,0 -433.01,142.88 -528.56,289.76 l -1.93,2.96 h 1060.94 l -1.84,-2.93 c -114.33,-182.24 -307.81,-289.79 -528.61,-289.79 z m 91.99,-1011.798 h -184.03 v 967.178 l 2.41,-0.67 c 71.19,-19.47 108.2,-22.38 179.16,-0.02 l 2.46,0.79 V 459.832" /><path
         id="path16"
         style="fill:#f03e38;fill-opacity:1;fill-rule:evenodd;stroke:none"
         d="m 2370.84,2750.46 c 89.88,-83.15 69.71,-207.14 50.37,-244.62 -42.15,-81.69 -135.96,-186.77 -159.67,-215.52 -39.55,-47.94 -158.36,-164.87 -171.21,-229.5 -10.8,-54.46 6.29,-134.38 13.66,-163.96 -26.33,0 -74.58,0.02 -74.58,0.02 -18.98,49.14 -49.7,139.22 -32.06,241.07 12.98,74.87 118.84,193.26 138.4,215.51 35.05,39.84 133.14,159.2 173,210.98 45.43,58.98 42.03,96.78 11.48,144.2 0.45,-0.48 50.61,41.82 50.61,41.82 z m -78.55,-952.89 h -128.33 c -26.25,77.33 -59.64,179.13 -27.92,259.45 34.1,86.36 189.12,210.22 285.37,318 51.75,64.87 71.15,105.71 39.92,161.63 0,0 50.99,42.01 50.99,42.17 54.42,-46.74 94.09,-170.96 34.81,-247.66 -35.84,-46.35 -72.95,-85.97 -121.11,-137.84 -46.96,-50.59 -93.5,-94.23 -156.98,-167.22 -48.57,-55.85 5.73,-167.73 23.25,-228.53 z m 147.12,0 h -108.9 c -10.26,38.84 -26.62,79.61 -32.97,119.29 -7.77,48.54 -4.43,76.19 30.31,111.63 49.77,50.73 172.36,133.07 201.8,170.74 25.39,32.5 10.33,74.51 10.33,74.51 -0.02,-0.08 50.37,41.91 50.12,41.91 62.34,-72.38 45.15,-177.86 -1.56,-217.61 -33.95,-28.86 -106.9,-89.15 -154.95,-137.32 -25.95,-26.34 -27.67,-28.28 -18.63,-69.29 7.52,-31.46 18.01,-71.69 24.45,-93.86 z m -477.32,297.17 c -29.39,42.93 -43.69,83.55 -47.03,137.56 -7.48,121.6 80.02,220.75 152.68,322.85 62.28,87.52 120.64,166.17 127.67,200.25 5.24,25.31 -5.21,53.09 -13.14,70.11 -0.09,-0.01 46.07,38.92 51.42,42.93 67.05,-61.25 71.08,-156.05 37.11,-227.64 -76.23,-160.63 -330.88,-368.85 -308.71,-546.06" /><path
         id="path18"
         style="fill:#231f20;fill-opacity:1;fill-rule:nonzero;stroke:none"
         d="m 4382.89,327.18 c 70.66,0 104.49,-50.539 104.49,-125.789 0,-69.911 -30.78,-119.309 -94.24,-119.309 -75.23,0 -106.4,69.918 -106.4,136.406 0,62.332 30.02,108.692 96.15,108.692 z m -1.91,-261.0589 c 83.22,0 147.07,65.3589 147.07,147.0589 0,84.359 -57.78,129.961 -139.09,129.961 -88.16,0 -142.89,-60.422 -142.89,-138.7 0,-85.132 57.78,-138.3199 134.91,-138.3199 z m -269.05,53.1879 c 0,-14.43 -0.74,-24.309 -3.41,-28.4887 -2.27,-3.8008 -6.84,-5.3203 -15.96,-5.6992 l -18.24,-1.1406 V 72.582 c 19.76,0.7578 37.61,1.1368 56.25,1.1368 17.48,0 35.33,-0.379 55.09,-1.1368 v 11.3985 l -18.24,1.1406 c -9.12,0.3789 -13.67,1.8984 -15.96,5.6992 -2.65,4.1797 -3.41,14.0587 -3.41,28.4887 v 160.75 c 0,14.441 0.37,26.601 1.52,37.992 h 58.89 c 11.4,0 14.45,-3.41 15.21,-12.531 l 1.51,-30.02 h 11.79 c 0,20.52 0.74,41.422 2.66,61.18 -27.36,0 -54.73,-1.141 -82.09,-1.141 h -55.1 c -27.36,0 -54.73,1.141 -82.07,1.141 1.9,-19.758 2.66,-40.66 2.66,-61.18 h 11.77 l 1.53,30.02 c 0.76,9.121 3.79,12.531 15.19,12.531 h 58.91 c 1.13,-11.391 1.5,-23.551 1.5,-37.992 v -160.75 z m -126.15,154.293 c 0,17.859 1.52,34.199 5.31,53.578 -15.56,6.082 -38.38,15.961 -68.77,15.961 -45.6,0 -97.28,-26.981 -97.28,-85.891 0,-39.512 23.55,-58.129 83.22,-64.969 38.77,-4.562 66.88,-14.82 66.88,-50.922 0,-37.621 -33.81,-58.5192 -68.01,-58.5192 -30.02,0 -60.04,14.4415 -61.95,30.3982 l -3.03,25.461 h -12.17 c 0.39,-17.859 0.39,-38.379 -2.66,-58.1482 12.54,-6.0703 38.38,-14.4297 64.98,-14.4297 56.63,0 114.77,31.1602 114.77,96.1289 0,43.32 -33.83,56.629 -87.4,62.332 -47.5,5.316 -62.72,21.277 -62.72,47.117 0,37.61 29.65,55.481 56.25,55.481 14.83,0 30.78,-2.66 41.43,-9.129 14.06,-8.742 15.57,-12.531 16.72,-22.789 l 2.26,-21.66 h 12.17 z m -213.94,16.339 c 0,14.438 0.76,24.321 3.41,28.489 2.29,3.8 6.86,5.332 15.98,5.711 l 18.24,1.14 v 11.399 c -19.76,-0.758 -37.63,-1.141 -55.11,-1.141 -18.62,0 -36.47,0.383 -56.23,1.141 v -11.399 l 18.24,-1.14 c 9.12,-0.379 13.67,-1.911 15.95,-5.711 2.66,-4.168 3.42,-14.051 3.42,-28.489 V 119.309 c 0,-14.43 -0.76,-24.309 -3.42,-28.4887 -2.28,-3.8008 -6.83,-5.3203 -15.95,-5.6992 l -18.24,-1.1406 V 72.582 c 19.76,0.7578 37.61,1.1368 56.23,1.1368 17.48,0 35.35,-0.379 55.11,-1.1368 v 11.3985 l -18.24,1.1406 c -9.12,0.3789 -13.69,1.8984 -15.98,5.6992 -2.65,4.1797 -3.41,14.0587 -3.41,28.4887 v 170.632 z m -227.6,27.731 c 10.62,2.668 21.66,4.558 38.75,4.558 37.62,0 61.56,-17.101 61.56,-56.609 0,-32.301 -23.94,-56.621 -54.73,-56.621 -8.36,0 -16.71,1.129 -25.07,3.801 l 3.8,-13.68 c 7.6,-1.519 15.2,-2.281 22.8,-2.281 50.15,0 91.21,34.199 91.21,81.699 0,42.941 -41.8,58.902 -78.67,58.141 -20.51,-0.379 -42.56,-1.141 -64.59,-1.141 -21.66,0 -43.32,0.762 -68.4,1.141 v -11.399 l 17.09,-1.14 c 9.51,-0.762 13.69,-2.661 16.35,-6.469 2.65,-3.793 3.79,-14.434 3.79,-27.731 V 119.309 c 0,-14.43 -0.77,-24.309 -3.42,-28.4887 -2.27,-3.8008 -6.84,-5.3203 -15.96,-5.6992 l -18.24,-1.1406 V 72.582 c 19.76,0.7578 37.62,1.1368 56.25,1.1368 17.48,0 35.33,-0.379 55.1,-1.1368 v 11.3985 l -18.25,1.1406 c -9.12,0.3789 -13.67,1.8984 -15.95,5.6992 -2.66,4.1797 -3.42,14.0587 -3.42,28.4887 v 198.363 z m -233.71,9.508 c 70.68,0 104.51,-50.539 104.51,-125.789 0,-69.911 -30.78,-119.309 -94.24,-119.309 -75.25,0 -106.41,69.918 -106.41,136.406 0,62.332 30.02,108.692 96.14,108.692 z m -1.9,-261.0589 c 83.23,0 147.05,65.3589 147.05,147.0589 0,84.359 -57.75,129.961 -139.06,129.961 -88.16,0 -142.89,-60.422 -142.89,-138.7 0,-85.132 57.75,-138.3199 134.9,-138.3199 z M 3121.29,289.941 c 0,14.438 0.76,24.321 3.42,28.489 2.28,3.8 6.85,5.332 15.95,5.711 l 18.25,1.14 v 11.399 c -19.75,-0.758 -37.62,-1.141 -55.1,-1.141 -18.61,0 -36.49,0.383 -56.23,1.141 v -11.399 l 18.24,-1.14 c 9.12,-0.379 13.67,-1.911 15.96,-5.711 2.65,-4.168 3.42,-14.051 3.42,-28.489 V 119.309 c 0,-14.43 -0.77,-24.309 -3.42,-28.4887 -2.29,-3.8008 -6.84,-5.3203 -15.96,-5.6992 l -18.24,-1.1406 V 72.582 c 19.74,0.7578 37.62,1.1368 56.23,1.1368 17.48,0 35.35,-0.379 55.1,-1.1368 v 11.3985 l -18.25,1.1406 c -9.1,0.3789 -13.67,1.8984 -15.95,5.6992 -2.66,4.1797 -3.42,14.0587 -3.42,28.4887 v 170.632 z m -230.27,0 c 0,14.438 0.76,24.321 3.41,28.489 2.29,3.8 6.86,5.332 15.96,5.711 l 18.24,1.14 v 11.399 c -19.76,-0.758 -37.61,-1.141 -55.09,-1.141 -18.62,0 -36.47,0.383 -56.25,1.141 v -11.399 l 18.24,-1.14 c 9.12,-0.379 13.69,-1.911 15.97,-5.711 2.66,-4.168 3.42,-14.051 3.42,-28.489 V 109.82 c 0,-10.2614 -3.04,-18.9997 -9.49,-22.4216 l -11.8,-6.0781 V 72.582 c 9.89,0.3789 19.38,1.1368 32.31,1.1368 23.55,0 48.63,-0.7579 82.85,-1.1368 28.1,-0.3828 58.12,0.7578 74.84,1.1368 3.05,19 5.71,44.4612 7.99,65.3592 h -12.17 l -4.55,-18.996 c -1.89,-7.98 -4.18,-20.9023 -7.99,-24.3203 -6.44,-6.082 -52.81,-7.2226 -83.98,-7.2226 -10.25,0 -21.27,0.3711 -31.91,3.039 V 289.941 Z m -250.04,12.539 c -4.94,9.122 -10.26,16.719 -16.72,24.7 -6.45,7.968 -12.15,15.582 -19.75,14.05 l -43.71,-9.109 v -11.019 l 11.02,-1.141 c 9.51,-1.141 28.88,-15.211 48.65,-49.41 l 47.11,-82.082 c 2.28,-3.789 3.42,-9.11 3.42,-15.188 v -53.972 c 0,-14.43 -0.77,-24.309 -3.42,-28.4887 -2.27,-3.8008 -6.84,-5.3203 -15.96,-5.6992 l -18.24,-1.1406 V 72.582 c 19.76,0.7578 37.62,1.1368 56.25,1.1368 17.48,0 35.33,-0.379 55.1,-1.1368 v 11.3985 l -18.25,1.1406 c -9.12,0.3789 -13.67,1.8984 -15.95,5.6992 -2.66,4.1797 -3.42,14.0587 -3.42,28.4887 v 49.031 c 0,9.121 0.76,18.621 5.31,28.5 15.59,33.82 61.56,98.039 93.48,134.898 v 5.703 h -30.39 c -12.54,-24.32 -25.84,-48.261 -41.04,-72.203 l -39.14,-61.937 -54.35,99.179 z M 2199.8,119.309 c 0,-14.43 -0.76,-24.309 -3.41,-28.4887 -2.29,-3.8008 -6.85,-4.9414 -15.96,-5.6992 L 2163.7,83.9805 V 72.582 c 15.21,0.3789 30.4,1.1368 44.08,1.1368 15.21,0 28.88,-0.7579 45.6,-1.1368 v 11.3985 l -16.72,1.1406 c -9.12,0.7578 -13.67,1.8984 -15.96,5.6992 -2.65,4.1797 -3.41,14.0587 -3.41,28.4887 V 294.5 h 0.76 l 178.98,-222.3008 34.2,-6.0781 c -0.39,4.5586 -1.15,9.5 -1.15,14.0586 V 289.941 c 0,14.438 0.76,24.321 3.42,28.489 2.28,3.8 6.85,4.949 15.97,5.711 l 16.72,1.14 v 11.399 c -16.72,-0.379 -30.41,-1.141 -45.6,-1.141 -13.7,0 -28.89,0.762 -44.09,1.141 v -11.399 l 16.72,-1.14 c 9.12,-0.762 13.67,-1.911 15.96,-5.711 2.66,-4.168 3.42,-14.051 3.42,-28.489 V 112.48 h -1.14 l -181.64,224.2 c -6.83,-0.379 -13.68,-1.141 -20.52,-1.141 -13.67,0 -28.87,0.762 -45.6,1.141 v -11.399 l 16.73,-1.14 c 9.11,-0.762 13.67,-1.911 15.96,-5.711 2.65,-4.168 3.41,-14.051 3.41,-28.489 V 119.309 Z m -245.09,56.632 48.26,113.239 47.87,-113.239 h -96.13 z m 63.83,163.778 h -12.15 c -10.27,-27.367 -23.19,-55.481 -34.96,-82.09 l -67.64,-153.891 c -4.18,-9.8786 -11.41,-17.8591 -20.53,-18.6169 L 1869.2,83.9805 V 72.582 c 14.44,0.3789 28.89,1.1368 43.71,1.1368 11.02,0 25.45,-0.7579 43.69,-1.1368 v 11.3985 l -14.06,1.1406 c -11.78,1.1406 -18.24,2.6602 -18.24,10.6406 0,6.0663 9.88,31.5393 13.3,39.5193 l 10.64,25.457 h 109.44 l 17.48,-43.699 c 3.8,-9.117 7.98,-18.9999 7.98,-24.3202 0,-4.5586 -7.59,-7.2188 -15.58,-7.5977 l -17.85,-1.1406 V 72.582 c 20.51,0.3789 37.23,1.1368 50.53,1.1368 17.1,0 33.82,-0.7579 50.54,-1.1368 v 11.3985 l -12.92,1.1406 c -6.83,0.7578 -11.02,5.6992 -15.2,12.918 -4.55,7.9809 -8.73,18.2419 -12.15,25.8399 l -91.97,215.84 z m 30.78,63.84 c -11.39,0 -19,-7.598 -19,-19.008 0,-11.391 7.61,-19 19,-19 11.4,0 19,7.609 19,19 0,11.41 -7.6,19.008 -19,19.008 z m -75.62,0 c -11.4,0 -18.99,-7.598 -18.99,-19.008 0,-11.391 7.59,-19 18.99,-19 11.4,0 19.01,7.609 19.01,19 0,11.41 -7.61,19.008 -19.01,19.008 z M 1715.3,289.941 c 0,14.438 0.76,24.321 3.42,28.489 2.28,3.8 6.85,5.332 15.97,5.711 l 18.24,1.14 v 11.399 c -19.77,-0.758 -37.63,-1.141 -55.11,-1.141 -18.62,0 -36.47,0.383 -56.24,1.141 v -11.399 l 18.24,-1.14 c 9.13,-0.379 13.68,-1.911 15.96,-5.711 2.66,-4.168 3.42,-14.051 3.42,-28.489 V 109.82 c 0,-10.2614 -3.04,-18.9997 -9.49,-22.4216 l -11.78,-6.0781 V 72.582 c 9.87,0.3789 19.37,1.1368 32.29,1.1368 23.57,0 48.65,-0.7579 82.85,-1.1368 28.11,-0.3828 58.13,0.7578 74.86,1.1368 3.03,19 5.69,44.4612 7.97,65.3592 h -12.15 l -4.57,-18.996 c -1.89,-7.98 -4.18,-20.9023 -7.98,-24.3203 -6.45,-6.082 -52.82,-7.2226 -83.97,-7.2226 -10.27,0 -21.29,0.3711 -31.93,3.039 V 289.941 Z m -250.04,12.539 c -4.94,9.122 -10.26,16.719 -16.72,24.7 -6.46,7.968 -12.16,15.582 -19.76,14.05 l -43.7,-9.109 v -11.019 l 11.02,-1.141 c 9.5,-1.141 28.89,-15.211 48.64,-49.41 l 47.13,-82.082 c 2.28,-3.789 3.41,-9.11 3.41,-15.188 v -53.972 c 0,-14.43 -0.76,-24.309 -3.41,-28.4887 -2.29,-3.8008 -6.85,-5.3203 -15.97,-5.6992 l -18.24,-1.1406 V 72.582 c 19.76,0.7578 37.62,1.1368 56.24,1.1368 17.48,0 35.34,-0.379 55.1,-1.1368 v 11.3985 l -18.24,1.1406 c -9.11,0.3789 -13.68,1.8984 -15.96,5.6992 -2.66,4.1797 -3.42,14.0587 -3.42,28.4887 v 49.031 c 0,9.121 0.76,18.621 5.32,28.5 15.59,33.82 61.56,98.039 93.49,134.898 v 5.703 h -30.4 c -12.55,-24.32 -25.84,-48.261 -41.04,-72.203 l -39.15,-61.937 -54.34,99.179 z m -275.5,-105.261 3.8,2.66 132.25,-127.297 c 11.77,0.3789 20.89,1.1368 30.02,1.1368 8.74,0 17.85,-0.7579 25.07,-1.1368 v 11.3985 l -7.98,0.75 c -6.84,0.7695 -14.06,6.8476 -23.55,15.5895 l -125.41,118.559 101.08,91.203 c 9.5,8.738 19.76,14.059 29.64,14.438 l 15.96,0.761 v 11.399 c -9.12,-0.379 -19.76,-1.141 -30.4,-1.141 -11.02,0 -21.66,0.762 -33.82,1.141 v -10.27 c 0,-2.648 -5.32,-9.109 -11.01,-14.808 L 1189.76,208.621 v 81.32 c 0,14.438 0.76,24.321 3.42,28.489 2.28,3.8 6.84,5.332 15.97,5.711 l 18.23,1.14 v 11.399 c -19.76,-0.758 -37.62,-1.141 -55.09,-1.141 -18.63,0 -36.49,0.383 -56.25,1.141 v -11.399 l 18.24,-1.14 c 9.12,-0.379 13.68,-1.911 15.96,-5.711 2.67,-4.168 3.42,-14.051 3.42,-28.489 V 119.309 c 0,-14.43 -0.75,-24.309 -3.42,-28.4887 -2.28,-3.8008 -6.84,-5.3203 -15.96,-5.6992 l -18.24,-1.1406 V 72.582 c 19.76,0.7578 37.62,1.1368 56.25,1.1368 17.47,0 35.33,-0.379 55.09,-1.1368 v 11.3985 l -18.23,1.1406 c -9.13,0.3789 -13.69,1.8984 -15.97,5.6992 -2.66,4.1797 -3.42,14.0587 -3.42,28.4887 v 77.91 z m -109.81,76.383 c 0,17.859 1.52,34.199 5.32,53.578 -15.58,6.082 -38.38,15.961 -68.78,15.961 -45.595,0 -97.275,-26.981 -97.275,-85.891 0,-39.512 23.558,-58.129 83.215,-64.969 38.76,-4.562 66.88,-14.82 66.88,-50.922 0,-37.621 -33.82,-58.5192 -68.02,-58.5192 -30.017,0 -60.036,14.4415 -61.938,30.3982 l -3.039,25.461 h -12.157 c 0.375,-17.859 0.375,-38.379 -2.664,-58.1482 12.539,-6.0703 38.379,-14.4297 64.985,-14.4297 56.613,0 114.763,31.1602 114.763,96.1289 0,43.32 -33.83,56.629 -87.41,62.332 -47.498,5.316 -62.697,21.277 -62.697,47.117 0,37.61 29.637,55.481 56.237,55.481 14.82,0 30.78,-2.66 41.42,-9.129 14.06,-8.742 15.59,-12.531 16.72,-22.789 l 2.28,-21.66 h 12.16 z M 707.551,175.941 755.816,289.18 803.691,175.941 h -96.14 z m 63.84,163.778 h -12.157 c -10.257,-27.367 -23.179,-55.481 -34.961,-82.09 L 656.633,103.738 C 652.449,93.8594 645.23,85.8789 636.109,85.1211 L 622.051,83.9805 V 72.582 c 14.437,0.3789 28.879,1.1368 43.695,1.1368 11.024,0 25.465,-0.7579 43.703,-1.1368 v 11.3985 l -14.058,1.1406 c -11.782,1.1406 -18.243,2.6602 -18.243,10.6406 0,6.0663 9.883,31.5393 13.301,39.5193 l 10.641,25.457 h 109.441 l 17.481,-43.699 c 3.801,-9.117 7.98,-18.9999 7.98,-24.3202 0,-4.5586 -7.597,-7.2188 -15.578,-7.5977 L 802.555,83.9805 V 72.582 c 20.515,0.3789 37.242,1.1368 50.535,1.1368 17.105,0 33.824,-0.7579 50.543,-1.1368 v 11.3985 l -12.918,1.1406 c -6.844,0.7578 -11.024,5.6992 -15.203,12.918 -4.559,7.9809 -8.739,18.2419 -12.157,25.8399 l -91.964,215.84 z m 30.781,63.84 c -11.402,0 -18.996,-7.598 -18.996,-19.008 0,-11.391 7.594,-19 18.996,-19 11.402,0 19,7.609 19,19 0,11.41 -7.598,19.008 -19,19.008 z m -75.617,0 c -11.403,0 -19.004,-7.598 -19.004,-19.008 0,-11.391 7.601,-19 19.004,-19 11.398,0 18.996,7.609 18.996,19 0,11.41 -7.598,19.008 -18.996,19.008 z M 453.336,312.352 c -3.426,9.128 4.18,11.41 11.398,11.789 l 21.282,1.14 v 11.399 c -16.723,-0.379 -33.442,-1.141 -50.543,-1.141 -17.098,0 -33.817,0.762 -50.535,1.141 v -11.399 l 13.675,-1.14 c 6.461,-0.379 11.782,-3.422 16.719,-15.582 L 486.773,133 c 7.602,-18.621 15.961,-40.2812 22.04,-62.6992 h 19 c 6.839,23.168 15.199,44.8282 24.32,66.5002 l 66.121,159.98 c 7.601,18.239 12.543,26.598 20.519,27.36 l 11.403,1.14 v 11.399 c -13.684,-0.379 -26.985,-1.141 -41.039,-1.141 -14.063,0 -27.364,0.762 -41.039,1.141 v -11.399 l 19.757,-1.14 c 9.879,-0.762 17.86,-4.18 9.879,-24.7 L 528.191,119.699 453.336,312.352 Z M 213.938,302.48 c -4.938,9.122 -10.262,16.719 -16.719,24.7 -6.461,7.968 -12.16,15.582 -19.762,14.05 l -43.703,-9.109 v -11.019 l 11.019,-1.141 c 9.504,-1.141 28.883,-15.211 48.645,-49.41 l 47.117,-82.082 c 2.281,-3.789 3.418,-9.11 3.418,-15.188 v -53.972 c 0,-14.43 -0.754,-24.309 -3.418,-28.4887 -2.277,-3.8008 -6.84,-5.3203 -15.961,-5.6992 L 206.34,83.9805 V 72.582 c 19.758,0.7578 37.613,1.1368 56.238,1.1368 17.481,0 35.336,-0.379 55.098,-1.1368 v 11.3985 l -18.238,1.1406 c -9.122,0.3789 -13.68,1.8984 -15.961,5.6992 -2.661,4.1797 -3.418,14.0587 -3.418,28.4887 v 49.031 c 0,9.121 0.757,18.621 5.316,28.5 15.582,33.82 61.563,98.039 93.48,134.898 v 5.703 h -30.398 c -12.539,-24.32 -25.84,-48.261 -41.039,-72.203 L 268.277,203.301 213.938,302.48 Z M 86.2617,289.941 c 0,14.438 0.7617,24.321 3.4141,28.489 2.2812,3.8 6.8437,5.332 15.9652,5.711 l 18.242,1.14 v 11.399 c -19.762,-0.758 -37.6213,-1.141 -55.1017,-1.141 -18.6211,0 -36.4805,0.383 -56.2422,1.141 v -11.399 l 18.2422,-1.14 c 9.121,-0.379 13.6757,-1.911 15.957,-5.711 2.6601,-4.168 3.4219,-14.051 3.4219,-28.489 V 67.2617 c 0,-9.8828 -1.1407,-23.5625 -3.043,-30.0312 -3.0352,-8.7422 -8.7383,-12.5313 -16.3359,-12.5313 -9.5,0 -17.4805,1.5196 -26.60161,7.2227 L 0,29.6406 1.89844,0.761719 C 3.41797,0.378906 5.69922,0 8.35938,0 30.4023,0 49.3984,14.0586 62.6992,30.3984 88.1602,61.5586 86.2617,93.4688 86.2617,118.18 v 171.761 0" /></g></g></svg>